<?xml version="1.0" encoding="utf-8"?>
<!-- Generator: Adobe Illustrator 15.1.0, SVG Export Plug-In . SVG Version: 6.00 Build 0)  -->
<!DOCTYPE svg PUBLIC "-//W3C//DTD SVG 1.1//EN" "http://www.w3.org/Graphics/SVG/1.1/DTD/svg11.dtd">
<svg version="1.1" id="Layer_1" xmlns="http://www.w3.org/2000/svg" xmlns:xlink="http://www.w3.org/1999/xlink" x="0px" y="0px"
	 width="500px" height="500px" viewBox="0 0 500 500" enable-background="new 0 0 500 500" xml:space="preserve">
<path fill-rule="evenodd" clip-rule="evenodd" stroke="#000000" stroke-width="5" stroke-linecap="square" stroke-miterlimit="10" d="
	M105.67,395.542c0,0,6.832,27.329-44.409,58.073C10.02,484.36,162.036,475.82,162.036,475.82s20.497-42.701,22.205-71.737
	C184.241,404.083,112.502,400.667,105.67,395.542z"/>
<path fill-rule="evenodd" clip-rule="evenodd" stroke="#000000" stroke-width="5" stroke-linecap="square" stroke-miterlimit="10" d="
	M380.358,395.542c0,0-6.833,27.329,44.409,58.073c51.242,30.745-100.774,22.205-100.774,22.205s-20.496-42.701-22.205-71.737
	C301.788,404.083,373.525,400.667,380.358,395.542z"/>
<path fill-rule="evenodd" clip-rule="evenodd" fill="#000099" stroke="#000000" stroke-width="5" stroke-linecap="square" stroke-miterlimit="10" d="
	M115.919,337.469c-3.143-1.333-29.037,63.197-20.497,97.358c0,0,49.533,29.037,109.314,17.081c0,0,10.249-18.789,13.665-39.285
	c0,0,25.621,18.788,76.862,5.124c0,0-5.125,25.621,8.54,34.161c0,0,51.241,11.957,97.358-5.124c0,0,20.497-88.818-3.416-107.607
	C397.746,339.177,196.197,371.63,115.919,337.469z"/>
<g>
	
		<path fill-rule="evenodd" clip-rule="evenodd" fill="#FF0000" stroke="#000000" stroke-width="5" stroke-linecap="square" stroke-miterlimit="10" d="
		M90.298,193.14c0-37.27,30.198-67.468,67.468-67.468h187.885c37.269,0,67.468,30.198,67.468,67.468v134.935
		c0,37.269-30.199,67.468-67.468,67.468H157.766c-37.27,0-67.468-30.199-67.468-67.468V193.14z"/>
</g>
<g>
	
		<path fill-rule="evenodd" clip-rule="evenodd" fill="#FF0000" stroke="#000000" stroke-width="5" stroke-linecap="square" stroke-miterlimit="10" d="
		M76.634,244.807c0-6.371,5.158-11.529,11.529-11.529h23.059c6.37,0,11.529,5.158,11.529,11.529v134.082
		c0,6.371-5.159,11.529-11.529,11.529H88.163c-6.371,0-11.529-5.158-11.529-11.529V244.807z"/>
</g>
<g>
	
		<path fill-rule="evenodd" clip-rule="evenodd" fill="#FF0000" stroke="#000000" stroke-width="5" stroke-linecap="square" stroke-miterlimit="10" d="
		M378.958,244.807c0-6.371,5.158-11.529,11.529-11.529h23.059c6.371,0,11.53,5.158,11.53,11.529v134.082
		c0,6.371-5.159,11.529-11.53,11.529h-23.059c-6.371,0-11.529-5.158-11.529-11.529V244.807z"/>
</g>
<g>
	
		<path fill-rule="evenodd" clip-rule="evenodd" fill="#FFCC33" stroke="#000000" stroke-width="5" stroke-linecap="square" stroke-miterlimit="10" d="
		M90.298,109.445c0-33.494,27.141-60.636,60.636-60.636h184.468c33.495,0,60.636,27.142,60.636,60.636v121.271
		c0,33.494-27.141,60.635-60.636,60.635H150.934c-33.495,0-60.636-27.141-60.636-60.635V109.445z"/>
</g>
<path fill-rule="evenodd" clip-rule="evenodd" fill="#FFFFFF" stroke="#000000" stroke-width="5" stroke-linecap="square" stroke-miterlimit="10" d="
	M40.765,198.263c0-40.088,36.706-72.591,81.986-72.591s81.986,32.503,81.986,72.591s-36.706,72.592-81.986,72.592
	S40.765,238.351,40.765,198.263z"/>
<path fill-rule="evenodd" clip-rule="evenodd" fill="#FFFFFF" stroke="#000000" stroke-width="5" stroke-linecap="square" stroke-miterlimit="10" d="
	M295.264,198.263c0-40.088,36.706-72.591,81.985-72.591c45.28,0,81.986,32.503,81.986,72.591s-36.706,72.592-81.986,72.592
	C331.97,270.855,295.264,238.351,295.264,198.263z"/>
<path fill-rule="evenodd" clip-rule="evenodd" fill="#663300" stroke="#000000" stroke-width="5" stroke-linecap="square" stroke-miterlimit="10" d="
	M131.291,127.38c0,0-52.949,90.526-61.489,75.154c-8.541-15.373-27.329-95.65-27.329-95.65S28.809,64.182,95.422,52.226
	c0,0,261.331-44.409,321.112,8.54c0,0,35.869,13.665,25.621,75.154c0,0-44.409,17.08-73.446-18.789c0,0-37.577,63.197-39.285,58.074
	c-1.708-5.125-29.037-18.789-32.453-49.533c0,0-3.417,37.577-22.205,42.701c0,0-37.577-8.54-35.869-42.701
	c0,0-11.956,42.701-17.081,39.284c-5.124-3.416-27.329-3.416-35.869-37.576c0,0-6.833,47.825-23.913,44.409
	C162.036,171.789,146.664,166.665,131.291,127.38z"/>
<path fill-rule="evenodd" clip-rule="evenodd" fill="#0099FF" stroke="#000000" stroke-width="5" stroke-linecap="square" stroke-miterlimit="10" d="
	M100.546,216.198c0-17.918,16.055-32.453,35.869-32.453c19.813,0,35.869,14.535,35.869,32.453c0,17.917-16.055,32.453-35.869,32.453
	C116.602,248.65,100.546,234.115,100.546,216.198z"/>
<path fill-rule="evenodd" clip-rule="evenodd" stroke="#000000" stroke-width="5" stroke-linecap="square" stroke-miterlimit="10" d="
	M122.751,218.76c0-8.011,6.883-14.519,15.372-14.519c8.49,0,15.373,6.508,15.373,14.519c0,8.01-6.883,14.518-15.373,14.518
	C129.634,233.278,122.751,226.771,122.751,218.76z"/>
<path fill-rule="evenodd" clip-rule="evenodd" fill="#0099FF" stroke="#000000" stroke-width="5" stroke-linecap="square" stroke-miterlimit="10" d="
	M341.38,216.198c0-17.918,16.056-32.453,35.869-32.453c19.814,0,35.87,14.535,35.87,32.453c0,17.917-16.056,32.453-35.87,32.453
	C357.436,248.65,341.38,234.115,341.38,216.198z"/>
<path fill-rule="evenodd" clip-rule="evenodd" stroke="#000000" stroke-width="5" stroke-linecap="square" stroke-miterlimit="10" d="
	M363.585,218.76c0-8.011,6.883-14.519,15.373-14.519c8.489,0,15.372,6.508,15.372,14.519c0,8.01-6.883,14.518-15.372,14.518
	C370.468,233.278,363.585,226.771,363.585,218.76z"/>
<path fill-rule="evenodd" clip-rule="evenodd" fill="#FF0000" stroke="#000000" stroke-width="5" stroke-linecap="square" stroke-miterlimit="10" d="
	M185.949,267.439c0,0,87.11-17.081,92.234-13.664c5.124,3.416,6.832-3.417,18.788,11.956
	C296.971,265.731,204.737,281.104,185.949,267.439z"/>
<path fill-rule="evenodd" clip-rule="evenodd" fill="#FFCC33" stroke="#000000" stroke-width="5" stroke-linecap="square" stroke-miterlimit="10" d="
	M93.714,375.046c0,0-40.993,10.248-37.577,35.869c0,0-1.708,20.497,17.081,18.789c0,0,10.248,13.664,22.204,8.54
	c0,0,30.745-35.87,27.329-35.87S114.21,368.213,93.714,375.046z"/>
<path fill-rule="evenodd" clip-rule="evenodd" fill="#FFCC33" stroke="#000000" stroke-width="5" stroke-linecap="square" stroke-miterlimit="10" d="
	M396.038,375.046c0,0-40.993,10.248-37.577,35.869c0,0-1.708,20.497,17.08,18.789c0,0,10.248,13.664,22.205,8.54
	c0,0,30.744-35.87,27.329-35.87C421.659,402.374,416.534,368.213,396.038,375.046z"/>
</svg>
